# xmcd CD database file generated by cdsubmit
#
# Track frame offsets:
#	150
#	11100
#	21600
#	37800
#	50100
#	62700
#	74775
#	85800
#	99375
#	115275
#	135525
#	151125
#
# Disc length: 2507 seconds
#
# Revision: 0
# Processed by: cddbd v1.4PL0 Copyright (c) Steve Scherf et al.
# Submitted via: cdsubmit 1.0 by Cameron Simpson <cs@zip.com.au>
#
DISCID=a509c90c
DTITLE=Aretha Franklin - The King and Queen of Soul, Disc 2: Aretha Franklin
DYEAR=1900
DGENRE=
TTITLE0=Respect
TTITLE1=Think
TTITLE2=I Say A Little Prayer
TTITLE3=Baby I Love You
TTITLE4=Chains Of Fools
TTITLE5=Satisfaction
TTITLE6=Since You've Been Gone
TTITLE7=Don't Play That Song
TTITLE8=Spanish Harlem
TTITLE9=Angel
TTITLE10=Until You Come Back To Me (That's What I'm Gonna Do)
TTITLE11=Spirit In The Dark
EXTD=
EXTT0=
EXTT1=
EXTT2=
EXTT3=
EXTT4=
EXTT5=
EXTT6=
EXTT7=
EXTT8=
EXTT9=
EXTT10=
EXTT11=
PLAYORDER=
